<svg xmlns="http://www.w3.org/2000/svg" width="24" height="24" viewBox="0 0 24 24">
    <g fill="none" fill-rule="evenodd">
        <path d="M0 0h24v24H0z"/>
        <path fill="#787878" d="M18.192 12.477c-.104 3.769-1.458 7.2-3.562 9.188A10.017 10.017 0 0 0 22 12.477h-3.808zm-5.715 0V22h.045c2.557-1.295 4.58-5.116 4.716-9.523h-4.761zm-5.716 0c.137 4.407 2.16 8.228 4.717 9.523h.045v-9.523H6.761zm-4.761 0a10.017 10.017 0 0 0 7.37 9.188c-2.104-1.988-3.458-5.42-3.562-9.188H2zM14.63 2.336c2.102 1.988 3.456 5.422 3.562 9.187H22a10.017 10.017 0 0 0-7.37-9.187zm-5.26 0A10.017 10.017 0 0 0 2 11.523h3.808c.106-3.765 1.46-7.199 3.562-9.187zM12.477 2v9.523h4.761C17.1 7.114 15.074 3.291 12.514 2h-.037zm-.991 0C8.926 3.29 6.9 7.114 6.76 11.523h4.762V2h-.037z"/>
    </g>
</svg>
