<svg width="24" height="24" viewBox="0 0 24 24" fill="none" xmlns="http://www.w3.org/2000/svg">
    <path fill-rule="evenodd" clip-rule="evenodd" d="M8.47535 19.7C15.6455 19.7 19.5665 13.8527 19.5665 8.78235C19.5665 8.61619 19.5631 8.45078 19.5553 8.28627C20.3164 7.74471 20.978 7.06894 21.5 6.29951C20.8015 6.60489 20.0498 6.81077 19.2613 6.90354C20.0662 6.42863 20.6841 5.67693 20.9754 4.78099C20.2221 5.22051 19.3882 5.54018 18.5003 5.71232C17.789 4.96652 16.7759 4.5 15.6549 4.5C13.502 4.5 11.7562 6.21849 11.7562 8.33692C11.7562 8.63811 11.7905 8.93085 11.8573 9.21184C8.61762 9.05152 5.74482 7.52454 3.8224 5.20278C3.48732 5.7697 3.2945 6.42863 3.2945 7.13134C3.2945 8.46268 3.98268 9.63789 5.02913 10.3254C4.38982 10.306 3.78904 10.1331 3.26365 9.84534C3.26274 9.86135 3.26274 9.87743 3.26274 9.89427C3.26274 11.7529 4.60664 13.3043 6.39014 13.6561C6.0628 13.7438 5.71822 13.7911 5.36254 13.7911C5.11144 13.7911 4.86717 13.7666 4.62975 13.7219C5.12603 15.2464 6.56501 16.3558 8.27136 16.3871C6.93696 17.4162 5.25629 18.0295 3.42994 18.0295C3.11537 18.0295 2.80514 18.0119 2.5 17.9764C4.22528 19.0647 6.27363 19.7 8.47535 19.7" fill="white"/>
</svg>
