<svg width="162" height="162" viewBox="0 0 162 162" fill="none" xmlns="http://www.w3.org/2000/svg">
<g clip-path="url(#clip0_541:50611)">
<g opacity="0.2">
<path fill-rule="evenodd" clip-rule="evenodd" d="M146.083 88.375H56.9166C54.4645 88.375 52.4583 90.3812 52.4583 92.8333V164.167C52.4583 166.619 54.4645 168.625 56.9166 168.625H146.083C148.535 168.625 150.542 166.619 150.542 164.167V131.844V125.156V92.8333C150.542 90.3812 148.535 88.375 146.083 88.375ZM143.854 106.743H133.823V95.0625H143.854V106.743ZM127.135 161.937H75.8645V131.844H127.135V161.937ZM69.177 125.156H59.1458V113.431H69.177V125.156ZM59.1458 131.844H69.177V143.525H59.1458V131.844ZM75.8645 125.156V95.0625H127.135V125.156H75.8645ZM69.177 95.0625V106.743H59.1458V95.0625H69.177ZM59.1458 150.257H69.177V161.937H59.1458V150.257ZM133.823 161.937V150.257H143.854V161.937H133.823ZM143.854 143.569H133.823V131.844H143.854V143.569ZM133.823 125.156V113.431H143.854V125.112H133.823V125.156Z" fill="#00B509"/>
</g>
</g>
<defs>
<clipPath id="clip0_541:50611">
<rect width="162" height="162" fill="white"/>
</clipPath>
</defs>
</svg>
