<svg width="24" height="24" viewBox="0 0 24 24" fill="none" xmlns="http://www.w3.org/2000/svg">
    <g clip-path="url(#clip0_2633_2169)">
        <path d="M22 10.6162C22 6.13636 17.5108 2.5 12 2.5C6.48922 2.5 2 6.13636 2 10.6162C2 14.6275 5.56139 17.9827 10.3599 18.62C10.6879 18.6949 11.1284 18.8355 11.2409 19.1167C11.344 19.3697 11.3065 19.7634 11.269 20.0164C11.269 20.0164 11.1471 20.7193 11.1284 20.8693C11.0815 21.1223 10.9316 21.8533 11.9906 21.4128C13.059 20.963 17.7451 18.0202 19.8444 15.6115C21.3065 14.0183 22 12.4063 22 10.6162ZM8.46673 13.0061C8.46673 13.1092 8.38238 13.1935 8.27929 13.1935H5.47704C5.37395 13.1935 5.2896 13.1092 5.2896 13.0061V8.63871C5.2896 8.53561 5.37395 8.45127 5.47704 8.45127H6.18932C6.29241 8.45127 6.37676 8.53561 6.37676 8.63871V12.1064H8.27929C8.38238 12.1064 8.46673 12.1907 8.46673 12.2938V13.0061ZM10.1631 13.0061C10.1631 13.1092 10.0787 13.1935 9.97563 13.1935H9.26336C9.16026 13.1935 9.07591 13.1092 9.07591 13.0061V8.63871C9.07591 8.53561 9.16026 8.45127 9.26336 8.45127H9.97563C10.0787 8.45127 10.1631 8.53561 10.1631 8.63871V13.0061ZM14.9897 13.0061C14.9897 13.1092 14.9053 13.1935 14.8022 13.1935H14.09C14.0712 13.1935 14.0525 13.1935 14.0431 13.1842H14.0337C14.0337 13.1842 14.0337 13.1842 14.0244 13.1842H14.015H14.0056C14.0056 13.1842 14.0056 13.1842 13.9963 13.1842L13.9869 13.1748C13.9681 13.1654 13.9494 13.1467 13.94 13.1279L11.9344 10.4194V13.0061C11.9344 13.1092 11.85 13.1935 11.747 13.1935H11.0347C10.9316 13.1935 10.8472 13.1092 10.8472 13.0061V8.63871C10.8472 8.53561 10.9316 8.45127 11.0347 8.45127H11.7376C11.7376 8.45127 11.7376 8.45127 11.747 8.45127H11.7563H11.7657H11.7751H11.7844C11.7844 8.45127 11.7844 8.45127 11.7938 8.45127H11.8032C11.8032 8.45127 11.8032 8.45127 11.8126 8.45127C11.8126 8.45127 11.8219 8.45127 11.8219 8.46064C11.8219 8.46064 11.8219 8.46064 11.8313 8.46064C11.8313 8.46064 11.8407 8.46064 11.8407 8.47001C11.8407 8.47001 11.8407 8.47001 11.85 8.47001C11.85 8.47001 11.8594 8.47001 11.8594 8.47938C11.8594 8.47938 11.8594 8.47938 11.8688 8.47938L11.8782 8.48875L11.8875 8.49813C11.8969 8.5075 11.8969 8.5075 11.9063 8.51687L13.9025 11.2348V8.63871C13.9025 8.53561 13.9869 8.45127 14.09 8.45127H14.8022C14.9053 8.45127 14.9897 8.53561 14.9897 8.63871V13.0061ZM18.8604 9.35098C18.8604 9.45408 18.776 9.53843 18.6729 9.53843H16.761V10.2788H18.6729C18.776 10.2788 18.8604 10.3632 18.8604 10.4663V11.1785C18.8604 11.2816 18.776 11.366 18.6729 11.366H16.761V12.1064H18.6729C18.776 12.1064 18.8604 12.1907 18.8604 12.2938V13.0061C18.8604 13.1092 18.776 13.1935 18.6729 13.1935H15.8707C15.7676 13.1935 15.6832 13.1092 15.6832 13.0061V8.64808C15.6832 8.54499 15.7676 8.46064 15.8707 8.46064H18.6729C18.776 8.46064 18.8604 8.54499 18.8604 8.64808V9.35098Z" fill="white"/>
    </g>
    <defs>
        <clipPath id="clip0_2633_2169">
            <rect width="20" height="19.0534" fill="white" transform="translate(2 2.5)"/>
        </clipPath>
    </defs>
</svg>
